<mxfile host="65bd71144e">
    <diagram id="wY0qm04zDxJJ_AmbhgwG" name="Page-1">
        <mxGraphModel dx="2628" dy="1229" grid="1" gridSize="10" guides="1" tooltips="1" connect="1" arrows="1" fold="1" page="1" pageScale="1" pageWidth="850" pageHeight="1100" math="0" shadow="0">
            <root>
                <mxCell id="0"/>
                <mxCell id="1" parent="0"/>
                <mxCell id="7" value="" style="edgeStyle=none;html=1;" parent="1" source="11" target="12" edge="1">
                    <mxGeometry relative="1" as="geometry"/>
                </mxCell>
                <mxCell id="8" value="" style="edgeStyle=orthogonalEdgeStyle;html=1;" parent="1" source="11" target="12" edge="1">
                    <mxGeometry relative="1" as="geometry"/>
                </mxCell>
                <mxCell id="9" value="" style="edgeStyle=orthogonalEdgeStyle;html=1;" parent="1" target="13" edge="1">
                    <mxGeometry relative="1" as="geometry">
                        <mxPoint x="425" y="130" as="sourcePoint"/>
                        <Array as="points">
                            <mxPoint x="425" y="190"/>
                            <mxPoint x="265" y="190"/>
                        </Array>
                    </mxGeometry>
                </mxCell>
                <mxCell id="10" value="" style="edgeStyle=orthogonalEdgeStyle;html=1;" parent="1" target="14" edge="1">
                    <mxGeometry relative="1" as="geometry">
                        <mxPoint x="425" y="130" as="sourcePoint"/>
                        <Array as="points">
                            <mxPoint x="425" y="190"/>
                            <mxPoint x="585" y="190"/>
                        </Array>
                    </mxGeometry>
                </mxCell>
                <mxCell id="11" value="GFDL" style="shape=document;whiteSpace=wrap;html=1;boundedLbl=1;fillColor=#1ba1e2;fontColor=#ffffff;strokeColor=#006EAF;" parent="1" vertex="1">
                    <mxGeometry x="365" y="50" width="120" height="80" as="geometry"/>
                </mxCell>
                <mxCell id="12" value="Init" style="shape=parallelogram;perimeter=parallelogramPerimeter;whiteSpace=wrap;html=1;fixedSize=1;fillColor=#1ba1e2;strokeColor=#006EAF;fontColor=#ffffff;" parent="1" vertex="1">
                    <mxGeometry x="365" y="220" width="120" height="60" as="geometry"/>
                </mxCell>
                <mxCell id="13" value="Setup" style="shape=parallelogram;perimeter=parallelogramPerimeter;whiteSpace=wrap;html=1;fixedSize=1;fillColor=#1ba1e2;strokeColor=#006EAF;fontColor=#ffffff;" parent="1" vertex="1">
                    <mxGeometry x="205" y="220" width="120" height="60" as="geometry"/>
                </mxCell>
                <mxCell id="16" style="edgeStyle=orthogonalEdgeStyle;html=1;exitX=0.5;exitY=1;exitDx=0;exitDy=0;entryX=0.5;entryY=0;entryDx=0;entryDy=0;" parent="1" source="14" target="15" edge="1">
                    <mxGeometry relative="1" as="geometry"/>
                </mxCell>
                <mxCell id="18" style="edgeStyle=orthogonalEdgeStyle;html=1;exitX=0.5;exitY=1;exitDx=0;exitDy=0;entryX=0.5;entryY=0;entryDx=0;entryDy=0;" parent="1" source="14" target="17" edge="1">
                    <mxGeometry relative="1" as="geometry"/>
                </mxCell>
                <mxCell id="30" style="edgeStyle=orthogonalEdgeStyle;html=1;exitX=0.5;exitY=1;exitDx=0;exitDy=0;" parent="1" source="14" target="19" edge="1">
                    <mxGeometry relative="1" as="geometry"/>
                </mxCell>
                <mxCell id="31" style="edgeStyle=orthogonalEdgeStyle;html=1;exitX=0.5;exitY=1;exitDx=0;exitDy=0;entryX=0.5;entryY=0;entryDx=0;entryDy=0;" parent="1" source="14" target="20" edge="1">
                    <mxGeometry relative="1" as="geometry"/>
                </mxCell>
                <mxCell id="32" style="edgeStyle=orthogonalEdgeStyle;html=1;exitX=0.5;exitY=1;exitDx=0;exitDy=0;entryX=0.5;entryY=0;entryDx=0;entryDy=0;" parent="1" source="14" target="22" edge="1">
                    <mxGeometry relative="1" as="geometry"/>
                </mxCell>
                <mxCell id="33" style="edgeStyle=orthogonalEdgeStyle;html=1;exitX=0.5;exitY=1;exitDx=0;exitDy=0;entryX=0.5;entryY=0;entryDx=0;entryDy=0;" parent="1" source="14" target="23" edge="1">
                    <mxGeometry relative="1" as="geometry"/>
                </mxCell>
                <mxCell id="43" style="edgeStyle=orthogonalEdgeStyle;html=1;exitX=0.5;exitY=1;exitDx=0;exitDy=0;" parent="1" source="14" target="21" edge="1">
                    <mxGeometry relative="1" as="geometry"/>
                </mxCell>
                <mxCell id="44" style="edgeStyle=orthogonalEdgeStyle;html=1;exitX=0.5;exitY=1;exitDx=0;exitDy=0;" parent="1" source="14" target="40" edge="1">
                    <mxGeometry relative="1" as="geometry"/>
                </mxCell>
                <mxCell id="45" style="edgeStyle=orthogonalEdgeStyle;html=1;exitX=0.5;exitY=1;exitDx=0;exitDy=0;" parent="1" source="14" target="41" edge="1">
                    <mxGeometry relative="1" as="geometry"/>
                </mxCell>
                <mxCell id="46" style="edgeStyle=orthogonalEdgeStyle;html=1;exitX=0.5;exitY=1;exitDx=0;exitDy=0;" parent="1" source="14" target="42" edge="1">
                    <mxGeometry relative="1" as="geometry"/>
                </mxCell>
                <mxCell id="14" value="Run" style="shape=parallelogram;perimeter=parallelogramPerimeter;whiteSpace=wrap;html=1;fixedSize=1;fillColor=#1ba1e2;strokeColor=#006EAF;fontColor=#ffffff;" parent="1" vertex="1">
                    <mxGeometry x="525" y="220" width="120" height="60" as="geometry"/>
                </mxCell>
                <mxCell id="35" style="edgeStyle=orthogonalEdgeStyle;html=1;exitX=0;exitY=0.5;exitDx=0;exitDy=0;entryX=1;entryY=0.5;entryDx=0;entryDy=0;" parent="1" source="15" target="19" edge="1">
                    <mxGeometry relative="1" as="geometry"/>
                </mxCell>
                <mxCell id="15" value="FIND_EIS" style="rounded=1;whiteSpace=wrap;html=1;" parent="1" vertex="1">
                    <mxGeometry x="525" y="350" width="120" height="60" as="geometry"/>
                </mxCell>
                <mxCell id="39" value="" style="edgeStyle=orthogonalEdgeStyle;html=1;" parent="1" source="17" target="38" edge="1">
                    <mxGeometry relative="1" as="geometry"/>
                </mxCell>
                <mxCell id="51" style="edgeStyle=orthogonalEdgeStyle;html=1;exitX=0.5;exitY=1;exitDx=0;exitDy=0;entryX=0.5;entryY=0;entryDx=0;entryDy=0;" parent="1" source="17" target="47" edge="1">
                    <mxGeometry relative="1" as="geometry"/>
                </mxCell>
                <mxCell id="65" style="edgeStyle=orthogonalEdgeStyle;html=1;exitX=0.5;exitY=1;exitDx=0;exitDy=0;" parent="1" source="17" target="59" edge="1">
                    <mxGeometry relative="1" as="geometry"/>
                </mxCell>
                <mxCell id="66" style="edgeStyle=orthogonalEdgeStyle;html=1;exitX=0.5;exitY=1;exitDx=0;exitDy=0;" parent="1" source="17" target="60" edge="1">
                    <mxGeometry relative="1" as="geometry"/>
                </mxCell>
                <mxCell id="67" style="edgeStyle=orthogonalEdgeStyle;html=1;exitX=0.5;exitY=1;exitDx=0;exitDy=0;" parent="1" source="17" target="61" edge="1">
                    <mxGeometry relative="1" as="geometry"/>
                </mxCell>
                <mxCell id="68" style="edgeStyle=orthogonalEdgeStyle;html=1;exitX=0.5;exitY=1;exitDx=0;exitDy=0;" parent="1" source="17" target="62" edge="1">
                    <mxGeometry relative="1" as="geometry"/>
                </mxCell>
                <mxCell id="17" value="&lt;font color=&quot;#000000&quot;&gt;evap_subl_pdf loop&lt;/font&gt;" style="rounded=1;whiteSpace=wrap;html=1;fillColor=#008a00;fontColor=#ffffff;strokeColor=#005700;" parent="1" vertex="1">
                    <mxGeometry x="690" y="350" width="120" height="60" as="geometry"/>
                </mxCell>
                <mxCell id="34" style="edgeStyle=orthogonalEdgeStyle;html=1;exitX=0.5;exitY=1;exitDx=0;exitDy=0;entryX=0.5;entryY=0;entryDx=0;entryDy=0;" parent="1" source="19" target="28" edge="1">
                    <mxGeometry relative="1" as="geometry"/>
                </mxCell>
                <mxCell id="19" value="&lt;font color=&quot;#000000&quot;&gt;GEOS_QSAT&lt;/font&gt;" style="rounded=1;whiteSpace=wrap;html=1;fillColor=#008a00;fontColor=#ffffff;strokeColor=#005700;" parent="1" vertex="1">
                    <mxGeometry x="365" y="350" width="120" height="60" as="geometry"/>
                </mxCell>
                <mxCell id="27" value="" style="edgeStyle=orthogonalEdgeStyle;html=1;entryX=0;entryY=0.5;entryDx=0;entryDy=0;" parent="1" source="20" target="19" edge="1">
                    <mxGeometry relative="1" as="geometry">
                        <mxPoint x="265" y="490" as="targetPoint"/>
                    </mxGeometry>
                </mxCell>
                <mxCell id="20" value="FIND_KLCL" style="rounded=1;whiteSpace=wrap;html=1;fontColor=#000000;fillColor=#008a00;strokeColor=#005700;" parent="1" vertex="1">
                    <mxGeometry x="205" y="350" width="120" height="60" as="geometry"/>
                </mxCell>
                <mxCell id="133" style="edgeStyle=orthogonalEdgeStyle;html=1;exitX=0.5;exitY=1;exitDx=0;exitDy=0;entryX=0.5;entryY=0;entryDx=0;entryDy=0;fontColor=#000000;" parent="1" source="21" target="132" edge="1">
                    <mxGeometry relative="1" as="geometry">
                        <Array as="points">
                            <mxPoint x="920" y="430"/>
                            <mxPoint x="1770" y="430"/>
                        </Array>
                    </mxGeometry>
                </mxCell>
                <mxCell id="21" value="gfdl_cloud_ microphys_driver" style="rounded=1;whiteSpace=wrap;html=1;fillColor=#008a00;fontColor=#000000;strokeColor=#005700;" parent="1" vertex="1">
                    <mxGeometry x="860" y="350" width="120" height="60" as="geometry"/>
                </mxCell>
                <mxCell id="22" value="FIX_UP_CLOUDS" style="rounded=1;whiteSpace=wrap;html=1;fillColor=#FFFF66;fontColor=#000000;" parent="1" vertex="1">
                    <mxGeometry x="50" y="350" width="120" height="60" as="geometry"/>
                </mxCell>
                <mxCell id="25" value="" style="edgeStyle=orthogonalEdgeStyle;html=1;" parent="1" source="23" target="24" edge="1">
                    <mxGeometry relative="1" as="geometry"/>
                </mxCell>
                <mxCell id="23" value="RADCOUPLE" style="rounded=1;whiteSpace=wrap;html=1;fillColor=#FFFF66;fontColor=#000000;" parent="1" vertex="1">
                    <mxGeometry x="-100" y="350" width="120" height="60" as="geometry"/>
                </mxCell>
                <mxCell id="24" value="LDRADIUS4" style="whiteSpace=wrap;html=1;rounded=1;fillColor=#FFFF66;fontColor=#000000;" parent="1" vertex="1">
                    <mxGeometry x="-100" y="490" width="120" height="60" as="geometry"/>
                </mxCell>
                <mxCell id="37" value="" style="edgeStyle=orthogonalEdgeStyle;html=1;" parent="1" source="28" target="36" edge="1">
                    <mxGeometry relative="1" as="geometry"/>
                </mxCell>
                <mxCell id="28" value="QSAT0" style="whiteSpace=wrap;html=1;rounded=1;fillColor=#008a00;fontColor=#000000;strokeColor=#005700;" parent="1" vertex="1">
                    <mxGeometry x="365" y="490" width="120" height="60" as="geometry"/>
                </mxCell>
                <mxCell id="80" value="" style="edgeStyle=orthogonalEdgeStyle;html=1;fontColor=#000000;" parent="1" source="36" target="79" edge="1">
                    <mxGeometry relative="1" as="geometry"/>
                </mxCell>
                <mxCell id="91" style="edgeStyle=orthogonalEdgeStyle;html=1;exitX=0.5;exitY=1;exitDx=0;exitDy=0;entryX=0.5;entryY=0;entryDx=0;entryDy=0;fontColor=#000000;" parent="1" source="36" target="82" edge="1">
                    <mxGeometry relative="1" as="geometry"/>
                </mxCell>
                <mxCell id="36" value="ESINIT, GEOS version" style="whiteSpace=wrap;html=1;rounded=1;fillColor=#008a00;fontColor=#000000;strokeColor=#005700;" parent="1" vertex="1">
                    <mxGeometry x="365" y="910" width="120" height="60" as="geometry"/>
                </mxCell>
                <mxCell id="50" value="" style="edgeStyle=orthogonalEdgeStyle;html=1;" parent="1" source="38" target="49" edge="1">
                    <mxGeometry relative="1" as="geometry"/>
                </mxCell>
                <mxCell id="52" style="edgeStyle=orthogonalEdgeStyle;html=1;exitX=0.5;exitY=1;exitDx=0;exitDy=0;entryX=0.5;entryY=0;entryDx=0;entryDy=0;" parent="1" source="38" target="48" edge="1">
                    <mxGeometry relative="1" as="geometry">
                        <Array as="points">
                            <mxPoint x="750" y="740"/>
                            <mxPoint x="585" y="740"/>
                        </Array>
                    </mxGeometry>
                </mxCell>
                <mxCell id="57" style="edgeStyle=orthogonalEdgeStyle;html=1;exitX=0.5;exitY=1;exitDx=0;exitDy=0;" parent="1" source="38" target="53" edge="1">
                    <mxGeometry relative="1" as="geometry">
                        <Array as="points">
                            <mxPoint x="750" y="740"/>
                            <mxPoint x="920" y="740"/>
                        </Array>
                    </mxGeometry>
                </mxCell>
                <mxCell id="58" style="edgeStyle=orthogonalEdgeStyle;html=1;exitX=0.5;exitY=1;exitDx=0;exitDy=0;entryX=0.5;entryY=0;entryDx=0;entryDy=0;" parent="1" source="38" target="54" edge="1">
                    <mxGeometry relative="1" as="geometry">
                        <Array as="points">
                            <mxPoint x="750" y="740"/>
                            <mxPoint x="1090" y="740"/>
                        </Array>
                    </mxGeometry>
                </mxCell>
                <mxCell id="38" value="hystpdf" style="whiteSpace=wrap;html=1;rounded=1;fillColor=#008a00;fontColor=#000000;strokeColor=#005700;" parent="1" vertex="1">
                    <mxGeometry x="690" y="490" width="120" height="60" as="geometry"/>
                </mxCell>
                <mxCell id="40" value="REDISTRIBUTE_ CLOUDS" style="rounded=1;whiteSpace=wrap;html=1;" parent="1" vertex="1">
                    <mxGeometry x="1030" y="350" width="120" height="60" as="geometry"/>
                </mxCell>
                <mxCell id="41" value="FIX_NEGATIVE_ PRECIP" style="rounded=1;whiteSpace=wrap;html=1;" parent="1" vertex="1">
                    <mxGeometry x="1200" y="350" width="120" height="60" as="geometry"/>
                </mxCell>
                <mxCell id="64" value="" style="edgeStyle=orthogonalEdgeStyle;html=1;" parent="1" source="42" target="63" edge="1">
                    <mxGeometry relative="1" as="geometry"/>
                </mxCell>
                <mxCell id="42" value="cs_interpolator" style="rounded=1;whiteSpace=wrap;html=1;" parent="1" vertex="1">
                    <mxGeometry x="1370" y="350" width="120" height="60" as="geometry"/>
                </mxCell>
                <mxCell id="47" value="initlal_calc" style="whiteSpace=wrap;html=1;rounded=1;fillColor=#009900;fontColor=#000000;" parent="1" vertex="1">
                    <mxGeometry x="525" y="490" width="120" height="60" as="geometry"/>
                </mxCell>
                <mxCell id="78" value="" style="edgeStyle=orthogonalEdgeStyle;html=1;fontColor=#000000;" parent="1" source="48" target="77" edge="1">
                    <mxGeometry relative="1" as="geometry"/>
                </mxCell>
                <mxCell id="48" value="GEOS_DQSAT" style="whiteSpace=wrap;html=1;rounded=1;fillColor=#008a00;fontColor=#000000;strokeColor=#005700;" parent="1" vertex="1">
                    <mxGeometry x="525" y="770" width="120" height="60" as="geometry"/>
                </mxCell>
                <mxCell id="49" value="ice_fraction" style="whiteSpace=wrap;html=1;rounded=1;fillColor=#008a00;fontColor=#000000;strokeColor=#005700;" parent="1" vertex="1">
                    <mxGeometry x="690" y="770" width="120" height="60" as="geometry"/>
                </mxCell>
                <mxCell id="94" value="" style="edgeStyle=orthogonalEdgeStyle;html=1;fontColor=#000000;" parent="1" source="53" target="93" edge="1">
                    <mxGeometry relative="1" as="geometry"/>
                </mxCell>
                <mxCell id="53" value="partition_dblgss" style="whiteSpace=wrap;html=1;rounded=1;fillColor=#990099;" parent="1" vertex="1">
                    <mxGeometry x="860" y="770" width="120" height="60" as="geometry"/>
                </mxCell>
                <mxCell id="76" value="" style="edgeStyle=orthogonalEdgeStyle;html=1;fontColor=#000000;" parent="1" source="54" target="75" edge="1">
                    <mxGeometry relative="1" as="geometry"/>
                </mxCell>
                <mxCell id="129" style="edgeStyle=orthogonalEdgeStyle;html=1;exitX=0.5;exitY=1;exitDx=0;exitDy=0;entryX=0.5;entryY=0;entryDx=0;entryDy=0;fontColor=#000000;" parent="1" source="54" target="114" edge="1">
                    <mxGeometry relative="1" as="geometry"/>
                </mxCell>
                <mxCell id="130" style="edgeStyle=orthogonalEdgeStyle;html=1;exitX=0.5;exitY=1;exitDx=0;exitDy=0;fontColor=#000000;" parent="1" source="54" target="115" edge="1">
                    <mxGeometry relative="1" as="geometry"/>
                </mxCell>
                <mxCell id="54" value="Bergeron_Partition" style="whiteSpace=wrap;html=1;rounded=1;fillColor=#008a00;fontColor=#000000;strokeColor=#005700;" parent="1" vertex="1">
                    <mxGeometry x="1030" y="770" width="120" height="60" as="geometry"/>
                </mxCell>
                <mxCell id="70" value="" style="edgeStyle=orthogonalEdgeStyle;html=1;" parent="1" source="59" target="69" edge="1">
                    <mxGeometry relative="1" as="geometry"/>
                </mxCell>
                <mxCell id="59" value="MELTFRZ" style="whiteSpace=wrap;html=1;rounded=1;fillColor=#008a00;fontColor=#000000;strokeColor=#005700;" parent="1" vertex="1">
                    <mxGeometry x="860" y="490" width="120" height="60" as="geometry"/>
                </mxCell>
                <mxCell id="72" value="" style="edgeStyle=orthogonalEdgeStyle;html=1;" parent="1" source="60" target="71" edge="1">
                    <mxGeometry relative="1" as="geometry"/>
                </mxCell>
                <mxCell id="60" value="EVAP3" style="whiteSpace=wrap;html=1;rounded=1;fillColor=#008a00;fontColor=#000000;strokeColor=#005700;" parent="1" vertex="1">
                    <mxGeometry x="1030" y="490" width="120" height="60" as="geometry"/>
                </mxCell>
                <mxCell id="74" value="" style="edgeStyle=orthogonalEdgeStyle;html=1;" parent="1" source="61" target="73" edge="1">
                    <mxGeometry relative="1" as="geometry"/>
                </mxCell>
                <mxCell id="61" value="SUBL3" style="whiteSpace=wrap;html=1;rounded=1;fillColor=#008a00;fontColor=#000000;strokeColor=#005700;" parent="1" vertex="1">
                    <mxGeometry x="1200" y="490" width="120" height="60" as="geometry"/>
                </mxCell>
                <mxCell id="62" value="FIX_UP_CLOUDS" style="rounded=1;whiteSpace=wrap;html=1;fillColor=#009900;fontColor=#000000;" parent="1" vertex="1">
                    <mxGeometry x="1370" y="490" width="120" height="60" as="geometry"/>
                </mxCell>
                <mxCell id="63" value="cs_prof" style="whiteSpace=wrap;html=1;rounded=1;" parent="1" vertex="1">
                    <mxGeometry x="1540" y="350" width="120" height="60" as="geometry"/>
                </mxCell>
                <mxCell id="69" value="ice_fraction" style="whiteSpace=wrap;html=1;rounded=1;fillColor=#009900;fontColor=#000000;" parent="1" vertex="1">
                    <mxGeometry x="860" y="630" width="120" height="60" as="geometry"/>
                </mxCell>
                <mxCell id="71" value="LDRADIUS4" style="whiteSpace=wrap;html=1;rounded=1;fillColor=#008a00;fontColor=#000000;strokeColor=#005700;" parent="1" vertex="1">
                    <mxGeometry x="1030" y="630" width="120" height="60" as="geometry"/>
                </mxCell>
                <mxCell id="73" value="LDRADIUS4" style="whiteSpace=wrap;html=1;rounded=1;fillColor=#008a00;fontColor=#000000;strokeColor=#005700;" parent="1" vertex="1">
                    <mxGeometry x="1200" y="630" width="120" height="60" as="geometry"/>
                </mxCell>
                <mxCell id="75" value="ice_fraction" style="whiteSpace=wrap;html=1;rounded=1;fillColor=#009900;fontColor=#000000;" parent="1" vertex="1">
                    <mxGeometry x="1030" y="910" width="120" height="60" as="geometry"/>
                </mxCell>
                <mxCell id="92" style="edgeStyle=orthogonalEdgeStyle;html=1;exitX=0;exitY=0.5;exitDx=0;exitDy=0;fontColor=#000000;" parent="1" source="77" target="36" edge="1">
                    <mxGeometry relative="1" as="geometry"/>
                </mxCell>
                <mxCell id="77" value="DQSAT0" style="whiteSpace=wrap;html=1;rounded=1;fillColor=#008a00;fontColor=#000000;strokeColor=#005700;" parent="1" vertex="1">
                    <mxGeometry x="525" y="910" width="120" height="60" as="geometry"/>
                </mxCell>
                <mxCell id="84" value="" style="edgeStyle=orthogonalEdgeStyle;html=1;fontColor=#000000;" parent="1" source="79" target="83" edge="1">
                    <mxGeometry relative="1" as="geometry"/>
                </mxCell>
                <mxCell id="79" value="QSATICE0" style="whiteSpace=wrap;html=1;rounded=1;fillColor=#008a00;fontColor=#000000;strokeColor=#005700;" parent="1" vertex="1">
                    <mxGeometry x="365" y="1050" width="120" height="60" as="geometry"/>
                </mxCell>
                <mxCell id="88" value="" style="edgeStyle=orthogonalEdgeStyle;html=1;fontColor=#000000;" parent="1" source="82" target="87" edge="1">
                    <mxGeometry relative="1" as="geometry"/>
                </mxCell>
                <mxCell id="82" value="QSATLQU0" style="whiteSpace=wrap;html=1;rounded=1;fillColor=#008a00;fontColor=#000000;strokeColor=#005700;" parent="1" vertex="1">
                    <mxGeometry x="205" y="1050" width="120" height="60" as="geometry"/>
                </mxCell>
                <mxCell id="86" value="" style="edgeStyle=orthogonalEdgeStyle;html=1;fontColor=#000000;" parent="1" source="83" target="85" edge="1">
                    <mxGeometry relative="1" as="geometry"/>
                </mxCell>
                <mxCell id="83" value="qsatice.code" style="rhombus;whiteSpace=wrap;html=1;rounded=1;fillColor=#008a00;fontColor=#000000;strokeColor=#005700;" parent="1" vertex="1">
                    <mxGeometry x="385" y="1180" width="80" height="80" as="geometry"/>
                </mxCell>
                <mxCell id="85" value="esatice.code" style="rhombus;whiteSpace=wrap;html=1;rounded=1;fillColor=#008a00;fontColor=#000000;strokeColor=#005700;" parent="1" vertex="1">
                    <mxGeometry x="385" y="1340" width="80" height="80" as="geometry"/>
                </mxCell>
                <mxCell id="90" value="" style="edgeStyle=orthogonalEdgeStyle;html=1;fontColor=#000000;" parent="1" source="87" target="89" edge="1">
                    <mxGeometry relative="1" as="geometry"/>
                </mxCell>
                <mxCell id="87" value="qsatlqu.code" style="rhombus;whiteSpace=wrap;html=1;rounded=1;fillColor=#008a00;fontColor=#000000;strokeColor=#005700;" parent="1" vertex="1">
                    <mxGeometry x="225" y="1180" width="80" height="80" as="geometry"/>
                </mxCell>
                <mxCell id="89" value="esatice.code" style="rhombus;whiteSpace=wrap;html=1;rounded=1;fillColor=#008a00;fontColor=#000000;strokeColor=#005700;" parent="1" vertex="1">
                    <mxGeometry x="225" y="1340" width="80" height="80" as="geometry"/>
                </mxCell>
                <mxCell id="96" value="" style="edgeStyle=orthogonalEdgeStyle;html=1;fontColor=#000000;" parent="1" source="93" target="95" edge="1">
                    <mxGeometry relative="1" as="geometry"/>
                </mxCell>
                <mxCell id="98" value="" style="edgeStyle=orthogonalEdgeStyle;html=1;fontColor=#000000;exitX=0.5;exitY=1;exitDx=0;exitDy=0;" parent="1" source="93" target="97" edge="1">
                    <mxGeometry relative="1" as="geometry"/>
                </mxCell>
                <mxCell id="93" value="MAPL_EQsat" style="whiteSpace=wrap;html=1;rounded=1;fillColor=#990099;" parent="1" vertex="1">
                    <mxGeometry x="860" y="910" width="120" height="60" as="geometry"/>
                </mxCell>
                <mxCell id="108" style="edgeStyle=orthogonalEdgeStyle;html=1;exitX=0.5;exitY=1;exitDx=0;exitDy=0;fontColor=#000000;entryX=1;entryY=0;entryDx=0;entryDy=0;" parent="1" source="95" target="99" edge="1">
                    <mxGeometry relative="1" as="geometry"/>
                </mxCell>
                <mxCell id="109" style="edgeStyle=orthogonalEdgeStyle;html=1;exitX=0.5;exitY=1;exitDx=0;exitDy=0;entryX=0.5;entryY=0;entryDx=0;entryDy=0;fontColor=#000000;" parent="1" source="95" target="107" edge="1">
                    <mxGeometry relative="1" as="geometry"/>
                </mxCell>
                <mxCell id="95" value="QSATD0" style="whiteSpace=wrap;html=1;rounded=1;fillColor=#990099;" parent="1" vertex="1">
                    <mxGeometry x="860" y="1050" width="120" height="60" as="geometry"/>
                </mxCell>
                <mxCell id="100" value="" style="edgeStyle=orthogonalEdgeStyle;html=1;fontColor=#000000;entryX=0.5;entryY=0;entryDx=0;entryDy=0;" parent="1" source="97" target="99" edge="1">
                    <mxGeometry relative="1" as="geometry">
                        <mxPoint x="710" y="1160" as="targetPoint"/>
                    </mxGeometry>
                </mxCell>
                <mxCell id="110" style="edgeStyle=orthogonalEdgeStyle;html=1;exitX=0.5;exitY=1;exitDx=0;exitDy=0;entryX=0;entryY=0;entryDx=0;entryDy=0;fontColor=#000000;" parent="1" source="97" target="107" edge="1">
                    <mxGeometry relative="1" as="geometry">
                        <Array as="points">
                            <mxPoint x="750" y="1160"/>
                            <mxPoint x="900" y="1160"/>
                        </Array>
                    </mxGeometry>
                </mxCell>
                <mxCell id="97" value="QSAT0" style="whiteSpace=wrap;html=1;rounded=1;fillColor=#990099;" parent="1" vertex="1">
                    <mxGeometry x="690" y="1050" width="120" height="60" as="geometry"/>
                </mxCell>
                <mxCell id="102" value="" style="edgeStyle=orthogonalEdgeStyle;html=1;fontColor=#000000;" parent="1" source="99" target="101" edge="1">
                    <mxGeometry relative="1" as="geometry"/>
                </mxCell>
                <mxCell id="99" value="qsatlqu.H" style="rhombus;whiteSpace=wrap;html=1;rounded=1;fillColor=#990099;" parent="1" vertex="1">
                    <mxGeometry x="710" y="1180" width="80" height="80" as="geometry"/>
                </mxCell>
                <mxCell id="104" value="" style="edgeStyle=orthogonalEdgeStyle;html=1;fontColor=#000000;" parent="1" source="101" target="103" edge="1">
                    <mxGeometry relative="1" as="geometry"/>
                </mxCell>
                <mxCell id="101" value="esatlqu.H" style="rhombus;whiteSpace=wrap;html=1;rounded=1;fillColor=#990099;" parent="1" vertex="1">
                    <mxGeometry x="710" y="1340" width="80" height="80" as="geometry"/>
                </mxCell>
                <mxCell id="106" value="" style="edgeStyle=orthogonalEdgeStyle;html=1;fontColor=#000000;" parent="1" source="103" target="105" edge="1">
                    <mxGeometry relative="1" as="geometry"/>
                </mxCell>
                <mxCell id="103" value="MAPL_EQsatSET" style="whiteSpace=wrap;html=1;rounded=1;fillColor=#990099;" parent="1" vertex="1">
                    <mxGeometry x="690" y="1510" width="120" height="60" as="geometry"/>
                </mxCell>
                <mxCell id="105" value="ESINIT, MAPL version" style="whiteSpace=wrap;html=1;rounded=1;fillColor=#990099;" parent="1" vertex="1">
                    <mxGeometry x="690" y="1650" width="120" height="60" as="geometry"/>
                </mxCell>
                <mxCell id="112" style="edgeStyle=orthogonalEdgeStyle;html=1;exitX=1;exitY=0;exitDx=0;exitDy=0;entryX=0.75;entryY=1;entryDx=0;entryDy=0;fontColor=#000000;" parent="1" source="107" target="95" edge="1">
                    <mxGeometry relative="1" as="geometry">
                        <Array as="points">
                            <mxPoint x="940" y="1130"/>
                            <mxPoint x="950" y="1130"/>
                        </Array>
                    </mxGeometry>
                </mxCell>
                <mxCell id="113" style="edgeStyle=orthogonalEdgeStyle;html=1;exitX=1;exitY=0;exitDx=0;exitDy=0;entryX=0.75;entryY=1;entryDx=0;entryDy=0;fontColor=#000000;" parent="1" source="107" target="97" edge="1">
                    <mxGeometry relative="1" as="geometry">
                        <Array as="points">
                            <mxPoint x="940" y="1130"/>
                            <mxPoint x="780" y="1130"/>
                        </Array>
                    </mxGeometry>
                </mxCell>
                <mxCell id="107" value="qsatice.H" style="rhombus;whiteSpace=wrap;html=1;rounded=1;fillColor=#990099;" parent="1" vertex="1">
                    <mxGeometry x="880" y="1180" width="80" height="80" as="geometry"/>
                </mxCell>
                <mxCell id="122" value="" style="edgeStyle=orthogonalEdgeStyle;html=1;fontColor=#000000;" parent="1" source="114" target="121" edge="1">
                    <mxGeometry relative="1" as="geometry"/>
                </mxCell>
                <mxCell id="114" value="QSATLQU0" style="whiteSpace=wrap;html=1;rounded=1;fillColor=#008a00;fontColor=#000000;strokeColor=#005700;" parent="1" vertex="1">
                    <mxGeometry x="1200" y="910" width="120" height="60" as="geometry"/>
                </mxCell>
                <mxCell id="126" value="" style="edgeStyle=orthogonalEdgeStyle;html=1;fontColor=#000000;" parent="1" source="115" target="125" edge="1">
                    <mxGeometry relative="1" as="geometry"/>
                </mxCell>
                <mxCell id="115" value="QSATICE0" style="whiteSpace=wrap;html=1;rounded=1;fillColor=#008a00;fontColor=#000000;strokeColor=#005700;" parent="1" vertex="1">
                    <mxGeometry x="1370" y="910" width="120" height="60" as="geometry"/>
                </mxCell>
                <mxCell id="124" value="" style="edgeStyle=orthogonalEdgeStyle;html=1;fontColor=#000000;" parent="1" source="121" target="123" edge="1">
                    <mxGeometry relative="1" as="geometry"/>
                </mxCell>
                <mxCell id="121" value="qsatlqu.code" style="rhombus;whiteSpace=wrap;html=1;rounded=1;fillColor=#008a00;fontColor=#000000;strokeColor=#005700;" parent="1" vertex="1">
                    <mxGeometry x="1220" y="1040" width="80" height="80" as="geometry"/>
                </mxCell>
                <mxCell id="123" value="esatlqu.code" style="rhombus;whiteSpace=wrap;html=1;rounded=1;fillColor=#008a00;fontColor=#000000;strokeColor=#005700;" parent="1" vertex="1">
                    <mxGeometry x="1220" y="1200" width="80" height="80" as="geometry"/>
                </mxCell>
                <mxCell id="128" value="" style="edgeStyle=orthogonalEdgeStyle;html=1;fontColor=#000000;" parent="1" source="125" target="127" edge="1">
                    <mxGeometry relative="1" as="geometry"/>
                </mxCell>
                <mxCell id="125" value="qsatice.code" style="rhombus;whiteSpace=wrap;html=1;rounded=1;fillColor=#008a00;fontColor=#000000;strokeColor=#005700;" parent="1" vertex="1">
                    <mxGeometry x="1390" y="1040" width="80" height="80" as="geometry"/>
                </mxCell>
                <mxCell id="127" value="esatice.code" style="rhombus;whiteSpace=wrap;html=1;rounded=1;fillColor=#008a00;fontColor=#000000;strokeColor=#005700;" parent="1" vertex="1">
                    <mxGeometry x="1390" y="1200" width="80" height="80" as="geometry"/>
                </mxCell>
                <mxCell id="135" value="" style="edgeStyle=orthogonalEdgeStyle;html=1;fontColor=#000000;" parent="1" source="132" target="134" edge="1">
                    <mxGeometry relative="1" as="geometry"/>
                </mxCell>
                <mxCell id="140" style="edgeStyle=orthogonalEdgeStyle;html=1;exitX=0.5;exitY=1;exitDx=0;exitDy=0;entryX=0.5;entryY=0;entryDx=0;entryDy=0;fontColor=#000000;" parent="1" source="132" target="136" edge="1">
                    <mxGeometry relative="1" as="geometry"/>
                </mxCell>
                <mxCell id="141" style="edgeStyle=orthogonalEdgeStyle;html=1;exitX=0.5;exitY=1;exitDx=0;exitDy=0;entryX=0.5;entryY=0;entryDx=0;entryDy=0;fontColor=#000000;" parent="1" source="132" target="137" edge="1">
                    <mxGeometry relative="1" as="geometry"/>
                </mxCell>
                <mxCell id="142" style="edgeStyle=orthogonalEdgeStyle;html=1;exitX=0.5;exitY=1;exitDx=0;exitDy=0;entryX=0.5;entryY=0;entryDx=0;entryDy=0;fontColor=#000000;" parent="1" source="132" target="138" edge="1">
                    <mxGeometry relative="1" as="geometry"/>
                </mxCell>
                <mxCell id="143" style="edgeStyle=orthogonalEdgeStyle;html=1;exitX=0.5;exitY=1;exitDx=0;exitDy=0;entryX=0.5;entryY=0;entryDx=0;entryDy=0;fontColor=#000000;" parent="1" source="132" target="139" edge="1">
                    <mxGeometry relative="1" as="geometry"/>
                </mxCell>
                <mxCell id="183" style="edgeStyle=orthogonalEdgeStyle;html=1;exitX=0.5;exitY=1;exitDx=0;exitDy=0;entryX=0.5;entryY=0;entryDx=0;entryDy=0;fontColor=#000000;" parent="1" source="132" target="145" edge="1">
                    <mxGeometry relative="1" as="geometry"/>
                </mxCell>
                <mxCell id="132" value="mpdrv" style="whiteSpace=wrap;html=1;rounded=1;fillColor=#008a00;fontColor=#000000;strokeColor=#005700;" parent="1" vertex="1">
                    <mxGeometry x="1710" y="490" width="120" height="60" as="geometry"/>
                </mxCell>
                <mxCell id="149" value="" style="edgeStyle=orthogonalEdgeStyle;html=1;fontColor=#000000;exitX=0.5;exitY=1;exitDx=0;exitDy=0;" parent="1" source="137" target="148" edge="1">
                    <mxGeometry relative="1" as="geometry"/>
                </mxCell>
                <mxCell id="134" value="fall_speed" style="whiteSpace=wrap;html=1;rounded=1;fillColor=#008a00;fontColor=#000000;strokeColor=#005700;" parent="1" vertex="1">
                    <mxGeometry x="1710" y="630" width="120" height="60" as="geometry"/>
                </mxCell>
                <mxCell id="136" value="neg_adj" style="whiteSpace=wrap;html=1;rounded=1;fillColor=#008a00;fontColor=#000000;strokeColor=#005700;" parent="1" vertex="1">
                    <mxGeometry x="1540" y="630" width="120" height="60" as="geometry"/>
                </mxCell>
                <mxCell id="151" value="" style="edgeStyle=orthogonalEdgeStyle;html=1;fontColor=#000000;" parent="1" source="137" target="150" edge="1">
                    <mxGeometry relative="1" as="geometry"/>
                </mxCell>
                <mxCell id="171" style="edgeStyle=orthogonalEdgeStyle;html=1;exitX=0.5;exitY=1;exitDx=0;exitDy=0;entryX=0.25;entryY=0;entryDx=0;entryDy=0;fontColor=#000000;" parent="1" source="137" target="154" edge="1">
                    <mxGeometry relative="1" as="geometry"/>
                </mxCell>
                <mxCell id="137" value="terminal_fall" style="whiteSpace=wrap;html=1;rounded=1;fillColor=#008a00;fontColor=#000000;strokeColor=#005700;" parent="1" vertex="1">
                    <mxGeometry x="1880" y="630" width="120" height="60" as="geometry"/>
                </mxCell>
                <mxCell id="138" value="sedi_heat" style="whiteSpace=wrap;html=1;rounded=1;fillColor=#990099;fontColor=#ffffff;strokeColor=#3700CC;" parent="1" vertex="1">
                    <mxGeometry x="2050" y="630" width="120" height="60" as="geometry"/>
                </mxCell>
                <mxCell id="155" value="" style="edgeStyle=orthogonalEdgeStyle;html=1;fontColor=#000000;" parent="1" source="139" target="154" edge="1">
                    <mxGeometry relative="1" as="geometry"/>
                </mxCell>
                <mxCell id="172" style="edgeStyle=orthogonalEdgeStyle;html=1;exitX=0.5;exitY=1;exitDx=0;exitDy=0;entryX=0.5;entryY=0;entryDx=0;entryDy=0;fontColor=#000000;" parent="1" source="139" target="152" edge="1">
                    <mxGeometry relative="1" as="geometry">
                        <Array as="points">
                            <mxPoint x="2280" y="750"/>
                            <mxPoint x="2110" y="750"/>
                        </Array>
                    </mxGeometry>
                </mxCell>
                <mxCell id="173" style="edgeStyle=orthogonalEdgeStyle;html=1;exitX=0.5;exitY=1;exitDx=0;exitDy=0;entryX=0.75;entryY=0;entryDx=0;entryDy=0;fontColor=#000000;" parent="1" source="139" target="150" edge="1">
                    <mxGeometry relative="1" as="geometry">
                        <Array as="points">
                            <mxPoint x="2280" y="750"/>
                            <mxPoint x="1970" y="750"/>
                        </Array>
                    </mxGeometry>
                </mxCell>
                <mxCell id="174" style="edgeStyle=orthogonalEdgeStyle;html=1;exitX=0.5;exitY=1;exitDx=0;exitDy=0;entryX=0.75;entryY=0;entryDx=0;entryDy=0;fontColor=#000000;" parent="1" source="139" target="148" edge="1">
                    <mxGeometry relative="1" as="geometry">
                        <Array as="points">
                            <mxPoint x="2280" y="750"/>
                            <mxPoint x="1800" y="750"/>
                        </Array>
                    </mxGeometry>
                </mxCell>
                <mxCell id="175" style="edgeStyle=orthogonalEdgeStyle;html=1;exitX=0.5;exitY=1;exitDx=0;exitDy=0;entryX=0.5;entryY=0;entryDx=0;entryDy=0;fontColor=#000000;" parent="1" source="139" target="156" edge="1">
                    <mxGeometry relative="1" as="geometry">
                        <Array as="points">
                            <mxPoint x="2280" y="750"/>
                            <mxPoint x="2450" y="750"/>
                        </Array>
                    </mxGeometry>
                </mxCell>
                <mxCell id="139" value="warm_rain" style="whiteSpace=wrap;html=1;rounded=1;fillColor=#008a00;fontColor=#000000;strokeColor=#005700;" parent="1" vertex="1">
                    <mxGeometry x="2220" y="630" width="120" height="60" as="geometry"/>
                </mxCell>
                <mxCell id="180" style="edgeStyle=orthogonalEdgeStyle;html=1;exitX=0.5;exitY=1;exitDx=0;exitDy=0;entryX=0.5;entryY=0;entryDx=0;entryDy=0;fontColor=#000000;" parent="1" source="145" target="176" edge="1">
                    <mxGeometry relative="1" as="geometry"/>
                </mxCell>
                <mxCell id="181" style="edgeStyle=orthogonalEdgeStyle;html=1;exitX=0.5;exitY=1;exitDx=0;exitDy=0;entryX=0.5;entryY=0;entryDx=0;entryDy=0;fontColor=#000000;" parent="1" source="145" target="177" edge="1">
                    <mxGeometry relative="1" as="geometry"/>
                </mxCell>
                <mxCell id="182" style="edgeStyle=orthogonalEdgeStyle;html=1;exitX=0.5;exitY=1;exitDx=0;exitDy=0;fontColor=#000000;" parent="1" source="145" target="178" edge="1">
                    <mxGeometry relative="1" as="geometry"/>
                </mxCell>
                <mxCell id="188" style="edgeStyle=orthogonalEdgeStyle;html=1;exitX=0.5;exitY=1;exitDx=0;exitDy=0;entryX=0.5;entryY=0;entryDx=0;entryDy=0;fontColor=#000000;" parent="1" source="145" target="184" edge="1">
                    <mxGeometry relative="1" as="geometry"/>
                </mxCell>
                <mxCell id="189" style="edgeStyle=orthogonalEdgeStyle;html=1;exitX=0.5;exitY=1;exitDx=0;exitDy=0;fontColor=#000000;" parent="1" source="145" target="185" edge="1">
                    <mxGeometry relative="1" as="geometry"/>
                </mxCell>
                <mxCell id="190" style="edgeStyle=orthogonalEdgeStyle;html=1;exitX=0.5;exitY=1;exitDx=0;exitDy=0;fontColor=#000000;" parent="1" source="145" target="186" edge="1">
                    <mxGeometry relative="1" as="geometry"/>
                </mxCell>
                <mxCell id="191" style="edgeStyle=orthogonalEdgeStyle;html=1;exitX=0.5;exitY=1;exitDx=0;exitDy=0;entryX=0.5;entryY=0;entryDx=0;entryDy=0;fontColor=#000000;" parent="1" source="145" target="187" edge="1">
                    <mxGeometry relative="1" as="geometry"/>
                </mxCell>
                <mxCell id="145" value="icloud" style="whiteSpace=wrap;html=1;rounded=1;fillColor=#008a00;fontColor=#000000;strokeColor=#005700;" parent="1" vertex="1">
                    <mxGeometry x="2560" y="630" width="120" height="60" as="geometry"/>
                </mxCell>
                <mxCell id="201" value="" style="edgeStyle=orthogonalEdgeStyle;html=1;fontColor=#000000;" parent="1" source="148" target="200" edge="1">
                    <mxGeometry relative="1" as="geometry"/>
                </mxCell>
                <mxCell id="148" value="lagrandian_fall_ppm" style="whiteSpace=wrap;html=1;rounded=1;fillColor=#990099;fontColor=#ffffff;strokeColor=#3700CC;" parent="1" vertex="1">
                    <mxGeometry x="1710" y="770" width="120" height="60" as="geometry"/>
                </mxCell>
                <mxCell id="150" value="implicit_fall" style="whiteSpace=wrap;html=1;rounded=1;fillColor=#008a00;fontColor=#000000;strokeColor=#005700;" parent="1" vertex="1">
                    <mxGeometry x="1880" y="770" width="120" height="60" as="geometry"/>
                </mxCell>
                <mxCell id="152" value="linear_prof" style="whiteSpace=wrap;html=1;rounded=1;fillColor=#008a00;fontColor=#000000;strokeColor=#005700;" parent="1" vertex="1">
                    <mxGeometry x="2050" y="770" width="120" height="60" as="geometry"/>
                </mxCell>
                <mxCell id="154" value="check_column" style="whiteSpace=wrap;html=1;rounded=1;fillColor=#008a00;fontColor=#000000;strokeColor=#005700;" parent="1" vertex="1">
                    <mxGeometry x="2220" y="770" width="120" height="60" as="geometry"/>
                </mxCell>
                <mxCell id="158" value="" style="edgeStyle=orthogonalEdgeStyle;html=1;fontColor=#000000;" parent="1" source="156" target="157" edge="1">
                    <mxGeometry relative="1" as="geometry"/>
                </mxCell>
                <mxCell id="156" value="revap_racc" style="whiteSpace=wrap;html=1;rounded=1;fillColor=#008a00;fontColor=#000000;strokeColor=#005700;" parent="1" vertex="1">
                    <mxGeometry x="2390" y="770" width="120" height="60" as="geometry"/>
                </mxCell>
                <mxCell id="160" value="" style="edgeStyle=orthogonalEdgeStyle;html=1;fontColor=#000000;" parent="1" source="157" target="159" edge="1">
                    <mxGeometry relative="1" as="geometry"/>
                </mxCell>
                <mxCell id="157" value="wqs2" style="whiteSpace=wrap;html=1;rounded=1;fillColor=#008a00;fontColor=#000000;strokeColor=#005700;gradientDirection=west;" parent="1" vertex="1">
                    <mxGeometry x="2390" y="910" width="120" height="60" as="geometry"/>
                </mxCell>
                <mxCell id="162" value="" style="edgeStyle=orthogonalEdgeStyle;html=1;fontColor=#000000;" parent="1" source="159" target="161" edge="1">
                    <mxGeometry relative="1" as="geometry"/>
                </mxCell>
                <mxCell id="168" style="edgeStyle=orthogonalEdgeStyle;html=1;exitX=0.5;exitY=1;exitDx=0;exitDy=0;entryX=0.5;entryY=0;entryDx=0;entryDy=0;fontColor=#000000;" parent="1" source="159" target="163" edge="1">
                    <mxGeometry relative="1" as="geometry"/>
                </mxCell>
                <mxCell id="169" style="edgeStyle=orthogonalEdgeStyle;html=1;exitX=0.5;exitY=1;exitDx=0;exitDy=0;entryX=0.5;entryY=0;entryDx=0;entryDy=0;fontColor=#000000;" parent="1" source="159" target="164" edge="1">
                    <mxGeometry relative="1" as="geometry"/>
                </mxCell>
                <mxCell id="170" style="edgeStyle=orthogonalEdgeStyle;html=1;exitX=0.5;exitY=1;exitDx=0;exitDy=0;entryX=0.5;entryY=0;entryDx=0;entryDy=0;fontColor=#000000;" parent="1" source="159" target="165" edge="1">
                    <mxGeometry relative="1" as="geometry"/>
                </mxCell>
                <mxCell id="159" value="qsmith_init" style="whiteSpace=wrap;html=1;rounded=1;fillColor=#a20025;fontColor=#ffffff;strokeColor=#6F0000;gradientColor=#00994D;gradientDirection=west;" parent="1" vertex="1">
                    <mxGeometry x="2390" y="1050" width="120" height="60" as="geometry"/>
                </mxCell>
                <mxCell id="161" value="qs_table2" style="whiteSpace=wrap;html=1;rounded=1;fillColor=#a20025;fontColor=#ffffff;strokeColor=#6F0000;gradientColor=#00994D;gradientDirection=west;" parent="1" vertex="1">
                    <mxGeometry x="2390" y="1190" width="120" height="60" as="geometry"/>
                </mxCell>
                <mxCell id="167" value="" style="edgeStyle=orthogonalEdgeStyle;html=1;fontColor=#000000;" parent="1" source="163" target="166" edge="1">
                    <mxGeometry relative="1" as="geometry"/>
                </mxCell>
                <mxCell id="163" value="qs_table" style="whiteSpace=wrap;html=1;rounded=1;fillColor=#a20025;fontColor=#ffffff;strokeColor=#6F0000;gradientColor=#00994D;gradientDirection=west;" parent="1" vertex="1">
                    <mxGeometry x="2220" y="1190" width="120" height="60" as="geometry"/>
                </mxCell>
                <mxCell id="164" value="qs_table3" style="whiteSpace=wrap;html=1;rounded=1;fillColor=#a20025;fontColor=#ffffff;strokeColor=#6F0000;gradientColor=#00994D;gradientDirection=west;" parent="1" vertex="1">
                    <mxGeometry x="2560" y="1190" width="120" height="60" as="geometry"/>
                </mxCell>
                <mxCell id="165" value="qs_tablew" style="whiteSpace=wrap;html=1;rounded=1;fillColor=#a20025;fontColor=#ffffff;strokeColor=#6F0000;gradientColor=#00994D;gradientDirection=west;" parent="1" vertex="1">
                    <mxGeometry x="2730" y="1190" width="120" height="60" as="geometry"/>
                </mxCell>
                <mxCell id="166" value="ice_fraction" style="whiteSpace=wrap;html=1;rounded=1;fontColor=#000000;fillColor=#009900;" parent="1" vertex="1">
                    <mxGeometry x="2220" y="1330" width="120" height="60" as="geometry"/>
                </mxCell>
                <mxCell id="176" value="acr3d" style="whiteSpace=wrap;html=1;rounded=1;fillColor=#990099;fontColor=#ffffff;strokeColor=#3700CC;" parent="1" vertex="1">
                    <mxGeometry x="2560" y="770" width="120" height="60" as="geometry"/>
                </mxCell>
                <mxCell id="179" style="edgeStyle=orthogonalEdgeStyle;html=1;exitX=1;exitY=0.5;exitDx=0;exitDy=0;entryX=0;entryY=0.5;entryDx=0;entryDy=0;fontColor=#000000;" parent="1" source="177" target="178" edge="1">
                    <mxGeometry relative="1" as="geometry"/>
                </mxCell>
                <mxCell id="177" value="new_ice_condensate" style="whiteSpace=wrap;html=1;rounded=1;fillColor=#008a00;fontColor=#000000;strokeColor=#005700;" parent="1" vertex="1">
                    <mxGeometry x="2730" y="770" width="120" height="60" as="geometry"/>
                </mxCell>
                <mxCell id="178" value="ice_fraction" style="whiteSpace=wrap;html=1;rounded=1;fillColor=#008a00;fontColor=#000000;strokeColor=#005700;" parent="1" vertex="1">
                    <mxGeometry x="2900" y="770" width="120" height="60" as="geometry"/>
                </mxCell>
                <mxCell id="192" style="edgeStyle=orthogonalEdgeStyle;html=1;exitX=0;exitY=0.5;exitDx=0;exitDy=0;entryX=1;entryY=0.5;entryDx=0;entryDy=0;fontColor=#000000;" parent="1" source="184" target="178" edge="1">
                    <mxGeometry relative="1" as="geometry"/>
                </mxCell>
                <mxCell id="184" value="subgrid_z_proc" style="whiteSpace=wrap;html=1;rounded=1;fillColor=#008a00;fontColor=#000000;strokeColor=#005700;" parent="1" vertex="1">
                    <mxGeometry x="3070" y="770" width="120" height="60" as="geometry"/>
                </mxCell>
                <mxCell id="194" value="" style="edgeStyle=orthogonalEdgeStyle;html=1;fontColor=#000000;" parent="1" source="185" target="193" edge="1">
                    <mxGeometry relative="1" as="geometry"/>
                </mxCell>
                <mxCell id="197" style="edgeStyle=orthogonalEdgeStyle;html=1;exitX=0.5;exitY=1;exitDx=0;exitDy=0;fontColor=#000000;" parent="1" source="185" target="196" edge="1">
                    <mxGeometry relative="1" as="geometry"/>
                </mxCell>
                <mxCell id="198" style="edgeStyle=orthogonalEdgeStyle;html=1;exitX=0.5;exitY=1;exitDx=0;exitDy=0;entryX=0.5;entryY=0;entryDx=0;entryDy=0;fontColor=#000000;" parent="1" source="185" target="195" edge="1">
                    <mxGeometry relative="1" as="geometry"/>
                </mxCell>
                <mxCell id="199" style="edgeStyle=orthogonalEdgeStyle;html=1;exitX=0.5;exitY=1;exitDx=0;exitDy=0;entryX=0.75;entryY=0;entryDx=0;entryDy=0;fontColor=#000000;" parent="1" source="185" target="157" edge="1">
                    <mxGeometry relative="1" as="geometry"/>
                </mxCell>
                <mxCell id="185" value="linear_proc" style="whiteSpace=wrap;html=1;rounded=1;fillColor=#008a00;fontColor=#000000;strokeColor=#005700;" parent="1" vertex="1">
                    <mxGeometry x="3240" y="770" width="120" height="60" as="geometry"/>
                </mxCell>
                <mxCell id="186" value="smlt" style="whiteSpace=wrap;html=1;rounded=1;fillColor=#008a00;fontColor=#000000;strokeColor=#005700;" parent="1" vertex="1">
                    <mxGeometry x="3410" y="770" width="120" height="60" as="geometry"/>
                </mxCell>
                <mxCell id="187" value="gmlt" style="whiteSpace=wrap;html=1;rounded=1;fillColor=#008a00;fontColor=#000000;strokeColor=#005700;" parent="1" vertex="1">
                    <mxGeometry x="3580" y="770" width="120" height="60" as="geometry"/>
                </mxCell>
                <mxCell id="193" value="iqs2" style="whiteSpace=wrap;html=1;rounded=1;fillColor=#008a00;fontColor=#000000;strokeColor=#005700;" parent="1" vertex="1">
                    <mxGeometry x="3240" y="910" width="120" height="60" as="geometry"/>
                </mxCell>
                <mxCell id="195" value="iqs1" style="whiteSpace=wrap;html=1;rounded=1;fillColor=#008a00;fontColor=#000000;strokeColor=#005700;" parent="1" vertex="1">
                    <mxGeometry x="3070" y="910" width="120" height="60" as="geometry"/>
                </mxCell>
                <mxCell id="196" value="wqs1" style="whiteSpace=wrap;html=1;rounded=1;fillColor=#008a00;fontColor=#000000;strokeColor=#005700;" parent="1" vertex="1">
                    <mxGeometry x="3410" y="910" width="120" height="60" as="geometry"/>
                </mxCell>
                <mxCell id="203" value="" style="edgeStyle=orthogonalEdgeStyle;html=1;fontColor=#000000;" parent="1" source="200" target="202" edge="1">
                    <mxGeometry relative="1" as="geometry"/>
                </mxCell>
                <mxCell id="200" value="cs_profile" style="whiteSpace=wrap;html=1;rounded=1;fillColor=#990099;fontColor=#ffffff;strokeColor=#3700CC;" parent="1" vertex="1">
                    <mxGeometry x="1710" y="910" width="120" height="60" as="geometry"/>
                </mxCell>
                <mxCell id="202" value="cs_limiters" style="whiteSpace=wrap;html=1;rounded=1;fillColor=#990099;fontColor=#ffffff;strokeColor=#3700CC;" parent="1" vertex="1">
                    <mxGeometry x="1710" y="1050" width="120" height="60" as="geometry"/>
                </mxCell>
            </root>
        </mxGraphModel>
    </diagram>
</mxfile>